<svg xmlns="http://www.w3.org/2000/svg" viewBox="0 0 1296.52 462.72">
  <line x1="22.34" y1="6.54" x2="1280.66" y2="6.54" fill="none" stroke="#d1d3d4" stroke-miterlimit="10"/>
  <line x1="22.34" y1="91.82" x2="1284" y2="91.82" fill="none" stroke="#d1d3d4" stroke-miterlimit="10"/>
  <line x1="22.34" y1="177.1" x2="1284" y2="177.1" fill="none" stroke="#d1d3d4" stroke-miterlimit="10"/>
  <line x1="22.34" y1="263.68" x2="1284" y2="263.68" fill="none" stroke="#d1d3d4" stroke-miterlimit="10"/>
  <line x1="22.34" y1="348.96" x2="1284" y2="348.96" fill="none" stroke="#d1d3d4" stroke-miterlimit="10"/>
  <line x1="22.34" y1="434.24" x2="1284" y2="434.24" fill="none" stroke="#d1d3d4" stroke-miterlimit="10"/>
  <line x1="37.38" y1="6.54" x2="37.38" y2="446.04" fill="none" stroke="#d1d3d4" stroke-miterlimit="10"/>
  <text transform="translate(0 10.04)" font-size="12" fill="#6d6e71">500</text>
  <text transform="translate(0 96.04)" font-size="12" fill="#6d6e71">400</text>
  <text transform="translate(0 181.04)" font-size="12" fill="#6d6e71">300</text>
  <text transform="translate(1 268.04)" font-size="12" fill="#6d6e71">200</text>
  <text transform="translate(1 352.79)" font-size="12" fill="#6d6e71">100</text>
  <text transform="translate(13 437.79)" font-size="12" fill="#6d6e71">0</text>
  <text transform="translate(13 459.72)" font-size="12" fill="#6d6e71">Jan 1, 2017</text>
  <text transform="translate(1232.58 459.72)" font-size="12" fill="#6d6e71">M<tspan x="9.72" y="0">ar 30, 2017</tspan></text>
  <line x1="37.38" y1="136.43" x2="63.25" y2="87.1" fill="#33c3e3" stroke="#33c6f4" stroke-miterlimit="10" stroke-width="2"/>
  <line x1="88.35" y1="95.1" x2="63.25" y2="87.1" fill="none" stroke="#33c6f4" stroke-miterlimit="10" stroke-width="2"/>
  <line x1="88.35" y1="95.1" x2="112.58" y2="180.38" fill="none" stroke="#33c6f4" stroke-miterlimit="10" stroke-width="2"/>
  <line x1="112.58" y1="180.38" x2="136.81" y2="104.28" fill="none" stroke="#33c6f4" stroke-miterlimit="10" stroke-width="2"/>
  <line x1="163.55" y1="192.84" x2="136.81" y2="104.28" fill="none" stroke="#33c6f4" stroke-miterlimit="10" stroke-width="2"/>
  <line x1="187.78" y1="59.68" x2="163.55" y2="192.84" fill="none" stroke="#33c6f4" stroke-miterlimit="10" stroke-width="2"/>
  <line x1="213.68" y1="78.7" x2="187.78" y2="59.68" fill="none" stroke="#33c6f4" stroke-miterlimit="10" stroke-width="2"/>
  <line x1="240.42" y1="164.63" x2="213.68" y2="78.7" fill="none" stroke="#33c6f4" stroke-miterlimit="10" stroke-width="2"/>
  <line x1="265.48" y1="126.26" x2="240.42" y2="164.63" fill="none" stroke="#33c6f4" stroke-miterlimit="10" stroke-width="2"/>
  <line x1="289.71" y1="57.71" x2="265.48" y2="126.26" fill="none" stroke="#33c6f4" stroke-miterlimit="10" stroke-width="2"/>
  <line x1="313.94" y1="126.26" x2="289.71" y2="57.71" fill="none" stroke="#33c6f4" stroke-miterlimit="10" stroke-width="2"/>
  <line x1="341.52" y1="74.11" x2="313.94" y2="126.26" fill="none" stroke="#33c6f4" stroke-miterlimit="10" stroke-width="2"/>
  <line x1="365.75" y1="190.22" x2="341.52" y2="74.11" fill="none" stroke="#33c6f4" stroke-miterlimit="10" stroke-width="2"/>
  <line x1="391.65" y1="78.04" x2="365.75" y2="190.22" fill="none" stroke="#33c6f4" stroke-miterlimit="10" stroke-width="2"/>
  <line x1="413.37" y1="106.91" x2="391.65" y2="78.04" fill="none" stroke="#33c6f4" stroke-miterlimit="10" stroke-width="2"/>
  <line x1="440.95" y1="126.26" x2="413.37" y2="106.91" fill="none" stroke="#33c6f4" stroke-miterlimit="10" stroke-width="2"/>
  <line x1="469.35" y1="52.46" x2="440.95" y2="126.26" fill="none" stroke="#33c6f4" stroke-miterlimit="10" stroke-width="2"/>
  <line x1="492.75" y1="41.97" x2="469.35" y2="52.46" fill="none" stroke="#33c6f4" stroke-miterlimit="10" stroke-width="2"/>
  <line x1="518.65" y1="172.5" x2="492.75" y2="41.97" fill="none" stroke="#33c6f4" stroke-miterlimit="10" stroke-width="2"/>
  <line x1="542.88" y1="145.45" x2="518.65" y2="172.5" fill="none" stroke="#33c6f4" stroke-miterlimit="10" stroke-width="2"/>
  <line x1="569.62" y1="134.13" x2="542.88" y2="145.45" fill="none" stroke="#33c6f4" stroke-miterlimit="10" stroke-width="2"/>
  <line x1="621.42" y1="89.36" x2="594.68" y2="107.24" fill="none" stroke="#33c6f4" stroke-miterlimit="10" stroke-width="2"/>
  <line x1="569.62" y1="134.13" x2="594.68" y2="107.24" fill="none" stroke="#33c6f4" stroke-miterlimit="10" stroke-width="2"/>
  <line x1="645.65" y1="154.14" x2="621.42" y2="89.36" fill="none" stroke="#33c6f4" stroke-miterlimit="10" stroke-width="2"/>
  <line x1="671.55" y1="43.93" x2="645.65" y2="154.14" fill="none" stroke="#33c6f4" stroke-miterlimit="10" stroke-width="2"/>
  <line x1="721.68" y1="173.16" x2="671.55" y2="43.93" fill="none" stroke="#33c6f4" stroke-miterlimit="10" stroke-width="2"/>
  <line x1="750.93" y1="132.16" x2="721.68" y2="173.16" fill="none" stroke="#33c6f4" stroke-miterlimit="10" stroke-width="2"/>
  <line x1="773.49" y1="80.01" x2="750.93" y2="132.16" fill="none" stroke="#33c6f4" stroke-miterlimit="10" stroke-width="2"/>
  <line x1="798.55" y1="134.13" x2="773.49" y2="80.01" fill="none" stroke="#33c6f4" stroke-miterlimit="10" stroke-width="2"/>
  <line x1="824.46" y1="121.75" x2="798.55" y2="134.13" fill="none" stroke="#33c6f4" stroke-miterlimit="10" stroke-width="2"/>
  <line x1="849.52" y1="75.42" x2="824.46" y2="121.75" fill="none" stroke="#33c6f4" stroke-miterlimit="10" stroke-width="2"/>
  <line x1="874.59" y1="59.68" x2="849.52" y2="75.42" fill="none" stroke="#33c6f4" stroke-miterlimit="10" stroke-width="2"/>
  <line x1="898.82" y1="165.94" x2="874.59" y2="59.68" fill="none" stroke="#33c6f4" stroke-miterlimit="10" stroke-width="2"/>
  <line x1="928.9" y1="148.56" x2="898.82" y2="165.94" fill="none" stroke="#33c6f4" stroke-miterlimit="10" stroke-width="2"/>
  <line x1="953.13" y1="127.94" x2="928.9" y2="148.56" fill="none" stroke="#33c6f4" stroke-miterlimit="10" stroke-width="2"/>
  <line x1="978.19" y1="157.25" x2="953.13" y2="127.94" fill="none" stroke="#33c6f4" stroke-miterlimit="10" stroke-width="2"/>
  <line x1="1002.42" y1="142.33" x2="978.19" y2="157.25" fill="none" stroke="#33c6f4" stroke-miterlimit="10" stroke-width="2"/>
  <line x1="1027.49" y1="184.97" x2="1002.42" y2="142.33" fill="none" stroke="#33c6f4" stroke-miterlimit="10" stroke-width="2"/>
  <line x1="1052.56" y1="106.09" x2="1027.49" y2="184.97" fill="none" stroke="#33c6f4" stroke-miterlimit="10" stroke-width="2"/>
  <line x1="1080.13" y1="82.64" x2="1052.56" y2="106.09" fill="none" stroke="#33c6f4" stroke-miterlimit="10" stroke-width="2"/>
  <line x1="1105.2" y1="51.15" x2="1080.13" y2="82.64" fill="none" stroke="#33c6f4" stroke-miterlimit="10" stroke-width="2"/>
  <line x1="1180.39" y1="180.38" x2="1124.41" y2="92.48" fill="none" stroke="#33c6f4" stroke-miterlimit="10" stroke-width="2"/>
  <line x1="1105.2" y1="51.15" x2="1124.41" y2="92.48" fill="none" stroke="#33c6f4" stroke-miterlimit="10" stroke-width="2"/>
  <line x1="1207.97" y1="163.65" x2="1180.39" y2="180.38" fill="none" stroke="#33c6f4" stroke-miterlimit="10" stroke-width="2"/>
  <line x1="1228.85" y1="121.75" x2="1207.97" y2="163.65" fill="none" stroke="#33c6f4" stroke-miterlimit="10" stroke-width="2"/>
  <line x1="1257.26" y1="83.29" x2="1226.61" y2="126.26" fill="none" stroke="#33c6f4" stroke-miterlimit="10" stroke-width="2"/>
  <line x1="1280.66" y1="74.76" x2="1257.26" y2="83.29" fill="none" stroke="#33c6f4" stroke-miterlimit="10" stroke-width="2"/>
  <line x1="85.84" y1="381.1" x2="37.38" y2="266.96" fill="none" stroke="#f39e1e" stroke-miterlimit="10" stroke-width="2"/>
  <line x1="114.25" y1="380.45" x2="85.84" y2="381.1" fill="none" stroke="#f39e1e" stroke-miterlimit="10" stroke-width="2"/>
  <line x1="138.48" y1="226.29" x2="114.25" y2="380.45" fill="none" stroke="#f39e1e" stroke-miterlimit="10" stroke-width="2"/>
  <line x1="188.61" y1="338.46" x2="138.48" y2="226.29" fill="none" stroke="#f39e1e" stroke-miterlimit="10" stroke-width="2"/>
  <line x1="215.35" y1="313.54" x2="188.61" y2="338.46" fill="none" stroke="#f39e1e" stroke-miterlimit="10" stroke-width="2"/>
  <line x1="239.58" y1="226.29" x2="215.35" y2="313.54" fill="none" stroke="#f39e1e" stroke-miterlimit="10" stroke-width="2"/>
  <line x1="264.65" y1="247.94" x2="239.58" y2="226.29" fill="none" stroke="#f39e1e" stroke-miterlimit="10" stroke-width="2"/>
  <line x1="292.22" y1="226.29" x2="264.65" y2="247.94" fill="none" stroke="#f39e1e" stroke-miterlimit="10" stroke-width="2"/>
  <line x1="316.45" y1="356.83" x2="292.22" y2="226.29" fill="none" stroke="#f39e1e" stroke-miterlimit="10" stroke-width="2"/>
  <line x1="343.19" y1="226.29" x2="316.45" y2="356.83" fill="none" stroke="#f39e1e" stroke-miterlimit="10" stroke-width="2"/>
  <line x1="368.25" y1="338.46" x2="343.19" y2="226.29" fill="none" stroke="#f39e1e" stroke-miterlimit="10" stroke-width="2"/>
  <line x1="392.48" y1="260.4" x2="368.25" y2="338.46" fill="none" stroke="#f39e1e" stroke-miterlimit="10" stroke-width="2"/>
  <line x1="418.39" y1="274.84" x2="392.48" y2="260.4" fill="none" stroke="#f39e1e" stroke-miterlimit="10" stroke-width="2"/>
  <line x1="441.78" y1="364.05" x2="418.39" y2="274.84" fill="none" stroke="#f39e1e" stroke-miterlimit="10" stroke-width="2"/>
  <line x1="468.52" y1="319.44" x2="441.78" y2="364.05" fill="none" stroke="#f39e1e" stroke-miterlimit="10" stroke-width="2"/>
  <line x1="494.42" y1="303.37" x2="468.52" y2="319.44" fill="none" stroke="#f39e1e" stroke-miterlimit="10" stroke-width="2"/>
  <line x1="517.81" y1="377.82" x2="494.42" y2="303.37" fill="none" stroke="#f39e1e" stroke-miterlimit="10" stroke-width="2"/>
  <line x1="545.39" y1="380.77" x2="517.81" y2="377.82" fill="none" stroke="#f39e1e" stroke-miterlimit="10" stroke-width="2"/>
  <line x1="569.62" y1="230.23" x2="545.39" y2="380.77" fill="none" stroke="#f39e1e" stroke-miterlimit="10" stroke-width="2"/>
  <line x1="595.52" y1="365.36" x2="569.62" y2="230.23" fill="none" stroke="#f39e1e" stroke-miterlimit="10" stroke-width="2"/>
  <line x1="621.42" y1="387.01" x2="595.52" y2="365.36" fill="none" stroke="#f39e1e" stroke-miterlimit="10" stroke-width="2"/>
  <line x1="646.49" y1="319.44" x2="621.42" y2="387.01" fill="none" stroke="#f39e1e" stroke-miterlimit="10" stroke-width="2"/>
  <line x1="669.88" y1="366.67" x2="646.49" y2="319.44" fill="none" stroke="#f39e1e" stroke-miterlimit="10" stroke-width="2"/>
  <line x1="696.62" y1="390.29" x2="669.88" y2="366.67" fill="none" stroke="#f39e1e" stroke-miterlimit="10" stroke-width="2"/>
  <line x1="724.19" y1="226.29" x2="696.62" y2="390.29" fill="none" stroke="#f39e1e" stroke-miterlimit="10" stroke-width="2"/>
  <line x1="775.16" y1="348.96" x2="724.19" y2="226.29" fill="none" stroke="#f39e1e" stroke-miterlimit="10" stroke-width="2"/>
  <line x1="826.96" y1="387.66" x2="798.55" y2="358.8" fill="none" stroke="#f39e1e" stroke-miterlimit="10" stroke-width="2"/>
  <line x1="775.16" y1="348.96" x2="798.55" y2="358.8" fill="none" stroke="#f39e1e" stroke-miterlimit="10" stroke-width="2"/>
  <line x1="851.19" y1="237.12" x2="826.96" y2="387.66" fill="none" stroke="#f39e1e" stroke-miterlimit="10" stroke-width="2"/>
  <line x1="876.26" y1="330.59" x2="851.19" y2="237.12" fill="none" stroke="#f39e1e" stroke-miterlimit="10" stroke-width="2"/>
  <line x1="901.32" y1="226.29" x2="876.26" y2="330.59" fill="none" stroke="#f39e1e" stroke-miterlimit="10" stroke-width="2"/>
  <line x1="923.88" y1="331.91" x2="901.32" y2="226.29" fill="none" stroke="#f39e1e" stroke-miterlimit="10" stroke-width="2"/>
  <line x1="950.62" y1="390.29" x2="923.88" y2="331.91" fill="none" stroke="#f39e1e" stroke-miterlimit="10" stroke-width="2"/>
  <line x1="976.52" y1="255.81" x2="950.62" y2="390.29" fill="none" stroke="#f39e1e" stroke-miterlimit="10" stroke-width="2"/>
  <line x1="1001.59" y1="373.23" x2="976.52" y2="255.81" fill="none" stroke="#f39e1e" stroke-miterlimit="10" stroke-width="2"/>
  <line x1="1029.16" y1="237.12" x2="1001.59" y2="373.23" fill="none" stroke="#f39e1e" stroke-miterlimit="10" stroke-width="2"/>
  <line x1="1051.72" y1="361.1" x2="1029.16" y2="237.12" fill="none" stroke="#f39e1e" stroke-miterlimit="10" stroke-width="2"/>
  <line x1="1076.79" y1="312.39" x2="1051.72" y2="361.1" fill="none" stroke="#f39e1e" stroke-miterlimit="10" stroke-width="2"/>
  <line x1="1104.36" y1="305.17" x2="1076.79" y2="312.39" fill="none" stroke="#f39e1e" stroke-miterlimit="10" stroke-width="2"/>
  <line x1="1130.26" y1="331.25" x2="1104.36" y2="305.17" fill="none" stroke="#f39e1e" stroke-miterlimit="10" stroke-width="2"/>
  <line x1="1152.4" y1="390.94" x2="1130.26" y2="331.25" fill="none" stroke="#f39e1e" stroke-miterlimit="10" stroke-width="2"/>
  <line x1="1180.39" y1="269.92" x2="1152.4" y2="390.94" fill="none" stroke="#f39e1e" stroke-miterlimit="10" stroke-width="2"/>
  <line x1="1208.8" y1="373.23" x2="1180.39" y2="269.92" fill="none" stroke="#f39e1e" stroke-miterlimit="10" stroke-width="2"/>
  <line x1="1231.36" y1="259.75" x2="1208.8" y2="373.23" fill="none" stroke="#f39e1e" stroke-miterlimit="10" stroke-width="2"/>
  <line x1="1256.43" y1="311.41" x2="1231.36" y2="259.75" fill="none" stroke="#f39e1e" stroke-miterlimit="10" stroke-width="2"/>
  <line x1="1280.66" y1="223.67" x2="1256.43" y2="311.41" fill="none" stroke="#f39e1e" stroke-miterlimit="10" stroke-width="2"/>
</svg>
