<svg xmlns="http://www.w3.org/2000/svg" viewBox="0 0 507.54 200">
  <text transform="translate(0 22.7)" font-size="27" fill="#333" font-weight="700">Se<tspan x="29" y="0">r</tspan><tspan x="39.88" y="0">vi</tspan><tspan x="61.45" y="0">c</tspan><tspan x="73.3" y="0">e S</tspan><tspan x="107.92" y="0">t</tspan><tspan x="117.93" y="0">atus</tspan></text>
  <ellipse cx="9" cy="55.76" rx="8" ry="7.5" fill="#00a7a2"/>
  <ellipse cx="9" cy="89.26" rx="8" ry="7.5" fill="#00a7a2"/>
  <ellipse cx="9" cy="121.26" rx="8" ry="7.5" fill="#00a7a2"/>
  <polygon points="10.92 148.51 0 161.34 21.71 161.34 10.92 148.51" fill="#f78f4c"/>
  <text transform="translate(31.5 63.26)" font-size="22" fill="#666766">A<tspan x="11.97" y="0">r</tspan><tspan x="19.38" y="0">chiving Se</tspan><tspan x="112.7" y="0">r</tspan><tspan x="120.76" y="0">vi</tspan><tspan x="136.44" y="0">c</tspan><tspan x="146.01" y="0">e</tspan></text>
  <text transform="translate(31.5 95.76)" font-size="22" fill="#666766">Analytics Se<tspan x="110.35" y="0">r</tspan><tspan x="118.4" y="0">vi</tspan><tspan x="134.09" y="0">c</tspan><tspan x="143.66" y="0">e</tspan></text>
  <text transform="translate(31.5 128.26)" font-size="22" fill="#666766">S<tspan x="11.75" y="0">e</tspan><tspan x="22.35" y="0">a</tspan><tspan x="33.62" y="0">r</tspan><tspan x="41.03" y="0">ch Se</tspan><tspan x="90.13" y="0">r</tspan><tspan x="98.18" y="0">vi</tspan><tspan x="113.87" y="0">c</tspan><tspan x="123.44" y="0">e</tspan></text>
  <text transform="translate(31.5 161.26)" font-size="22" fill="#666766">Bac<tspan x="34.23" y="0">k</tspan><tspan x="44.81" y="0">up Se</tspan><tspan x="96.09" y="0">r</tspan><tspan x="104.15" y="0">vi</tspan><tspan x="119.83" y="0">c</tspan><tspan x="129.4" y="0">e</tspan></text>
  <line x1="378" x2="378" y2="200" fill="#ccc" stroke="#ccc" stroke-miterlimit="10"/>
  <text transform="translate(403.5 55.28)" font-size="16" fill="#999">P<tspan x="8.53" y="0">ac</tspan><tspan x="24.02" y="0">k</tspan><tspan x="31.78" y="0">a</tspan><tspan x="39.97" y="0">g</tspan><tspan x="47.81" y="0">e</tspan></text>
  <text transform="translate(403.5 79.6)" font-size="20" fill="#666766">Aspects<tspan x="0" y="24">Ultima</tspan><tspan x="56.5" y="24">t</tspan><tspan x="63.06" y="24">e</tspan></text>
  <text transform="translate(403.5 137.28)" font-size="16" fill="#999">Last Upda<tspan x="67.58" y="0">t</tspan><tspan x="72.83" y="0">ed</tspan></text>
  <text transform="translate(403.5 161.1)" font-size="20" fill="#666766">16 Dec, 2016</text>
</svg>
